<?xml version="1.0" encoding="utf-8"?>
<!-- Generator: Adobe Illustrator 20.1.0, SVG Export Plug-In . SVG Version: 6.00 Build 0)  -->
<svg version="1.1" id="Layer_1" xmlns="http://www.w3.org/2000/svg" xmlns:xlink="http://www.w3.org/1999/xlink" x="0px" y="0px"
	 viewBox="0 0 28.7 34.6" style="enable-background:new 0 0 28.7 34.6;" xml:space="preserve">
<style type="text/css">
	.st0{fill:#1E73B7;}
</style>
<g>
	<g>
		<path class="st0" d="M2,2h9.9v7.9h9.9v9.9h2V7.9L14.2,0H2C0.8,0,0,0.8,0,2v25.7c0,1.2,1,2,2,2h11.9v-2H2V2z M13.8,2.2l6.9,5.7
			h-6.9V2.2z M22.7,22.7c-3.4,0-5.9,2.6-5.9,5.9s2.6,5.9,5.9,5.9s5.9-2.6,5.9-5.9C28.7,25.5,25.9,22.7,22.7,22.7z M22.7,33.8
			c-2.8,0-5.1-2.4-5.1-5.1c0-2.8,2.4-5.1,5.1-5.1c2.8,0,5.1,2.4,5.1,5.1C27.9,31.4,25.5,33.8,22.7,33.8z M24.7,27.7h-1v-1
			c0-0.6-0.4-1-1-1c-0.6,0-1,0.4-1,1v1h-1c-0.6,0-1,0.4-1,1c0,0.6,0.4,1,1,1h1v1c0,0.6,0.4,1,1,1c0.6,0,1-0.4,1-1v-1h1
			c0.6,0,1-0.4,1-1C25.7,28.1,25.1,27.7,24.7,27.7z"/>
	</g>
</g>
</svg>
