<?xml version="1.0" encoding="utf-8"?>
<!-- Generator: Adobe Illustrator 20.1.0, SVG Export Plug-In . SVG Version: 6.00 Build 0)  -->
<svg version="1.1" id="Layer_1" xmlns="http://www.w3.org/2000/svg" xmlns:xlink="http://www.w3.org/1999/xlink" x="0px" y="0px"
	 viewBox="0 0 28.7 26.7" style="enable-background:new 0 0 28.7 26.7;" xml:space="preserve">
<style type="text/css">
	.st0{fill:#1E73B7;}
</style>
<g>
	<g>
		<path class="st0" d="M14.8,11.9H1c-0.6,0-1,0.4-1,1c0,0.6,0.4,1,1,1h13.8c0.6,0,1-0.4,1-1C15.8,12.3,15.4,11.9,14.8,11.9z M1,9.9
			h21.7c0.6,0,1-0.4,1-1c0-0.6-0.4-1-1-1H1c-0.6,0-1,0.4-1,1C0,9.5,0.4,9.9,1,9.9z M10.9,15.8H1c-0.6,0-1,0.4-1,1c0,0.6,0.4,1,1,1
			h9.9c0.6,0,1-0.4,1-1C11.9,16.2,11.5,15.8,10.9,15.8z M1,5.9h21.7c0.6,0,1-0.4,1-1c0-0.6-0.4-1-1-1H1c-0.6,0-1,0.4-1,1
			C0,5.5,0.4,5.9,1,5.9z M1,2h21.7c0.6,0,1-0.4,1-1c0-0.6-0.4-1-1-1H1C0.4,0,0,0.4,0,1C0,1.6,0.4,2,1,2z M10.9,19.8H1
			c-0.6,0-1,0.4-1,1c0,0.6,0.4,1,1,1h9.9c0.6,0,1-0.4,1-1C11.9,20.2,11.5,19.8,10.9,19.8z M22.7,14.8c-3.4,0-5.9,2.6-5.9,5.9
			s2.6,5.9,5.9,5.9s5.9-2.6,5.9-5.9C28.7,17.6,26.1,14.8,22.7,14.8z M22.7,26.1c-2.8,0-5.1-2.4-5.1-5.1c0-2.8,2.4-5.1,5.1-5.1
			c2.8,0,5.1,2.4,5.1,5.1C27.9,23.7,25.7,26.1,22.7,26.1z M24.7,19.8h-1v-1c0-0.6-0.4-1-1-1c-0.6,0-1,0.4-1,1v1h-1c-0.6,0-1,0.4-1,1
			c0,0.6,0.4,1,1,1h1v1c0,0.6,0.4,1,1,1c0.6,0,1-0.4,1-1v-1h1c0.6,0,1-0.4,1-1C25.7,20.2,25.3,19.8,24.7,19.8z"/>
	</g>
</g>
</svg>
