<svg width="11" height="10" viewBox="0 0 11 10" fill="none" xmlns="http://www.w3.org/2000/svg">
<path id="Vector" d="M7.3495 4.91402L10.3796 2.14205C10.7514 1.80188 10.7514 1.25037 10.3796 0.909933L9.70617 0.293878C9.33433 -0.0462828 8.73147 -0.0462828 8.35933 0.293878L5.32923 3.06585L2.29914 0.293878C1.92731 -0.0462828 1.32444 -0.0462828 0.952298 0.293878L0.278876 0.909933C-0.0929588 1.25009 -0.0929588 1.80161 0.278876 2.14205L3.30897 4.91402L0.278876 7.68599C-0.0929588 8.02615 -0.0929588 8.57767 0.278876 8.91811L0.952298 9.53416C1.32413 9.87432 1.92731 9.87432 2.29914 9.53416L5.32923 6.76219L8.35933 9.53416C8.73116 9.87432 9.33433 9.87432 9.70617 9.53416L10.3796 8.91811C10.7514 8.57794 10.7514 8.02643 10.3796 7.68599L7.3495 4.91402Z" fill="white"/>
</svg>
