<?xml version="1.0" encoding="utf-8"?>
<!-- Generator: Adobe Illustrator 19.1.0, SVG Export Plug-In . SVG Version: 6.00 Build 0)  -->
<svg version="1.1" id="Layer_1" xmlns="http://www.w3.org/2000/svg" xmlns:xlink="http://www.w3.org/1999/xlink" x="0px" y="0px"
	 viewBox="4 8 24 24" style="enable-background:new 4 8 24 24;" xml:space="preserve">
<style type="text/css">
	.st0{fill:#2E4453;}
</style>
<g>
	<g>
		<path class="st0" d="M24.2,15.6l-7.9-4c-0.2-0.1-0.3-0.1-0.5,0l-8,4c-0.2,0.1-0.3,0.3-0.3,0.5c0,0.2,0.1,0.4,0.3,0.5l7.9,4.3
			c0.1,0,0.2,0.1,0.3,0.1c0.1,0,0.2,0,0.3-0.1l8-4.3c0.2-0.1,0.3-0.3,0.3-0.5C24.5,15.8,24.4,15.7,24.2,15.6z M16,19.7l-6.7-3.7
			l6.8-3.4l6.7,3.4L16,19.7z M24.1,19.5l-1.6-0.8l-1.1,0.6l1.3,0.7l-6.8,3.7L9.2,20l1.4-0.7l-1.1-0.6l-1.7,0.8
			c-0.2,0.1-0.3,0.3-0.3,0.5c0,0.2,0.1,0.4,0.3,0.5l7.9,4.3c0.1,0,0.2,0.1,0.3,0.1c0.1,0,0.2,0,0.3-0.1l8-4.3
			c0.2-0.1,0.3-0.3,0.3-0.5C24.4,19.7,24.3,19.6,24.1,19.5z M24.1,23.2l-1.5-0.7l-1.1,0.6l1.2,0.6l-6.8,3.7l-6.7-3.7l1.3-0.6
			l-1.1-0.6l-1.6,0.7c-0.2,0.1-0.3,0.3-0.3,0.5c0,0.2,0.1,0.4,0.3,0.5l7.9,4.3c0.1,0,0.2,0.1,0.3,0.1c0.1,0,0.2,0,0.3-0.1l8-4.3
			c0.2-0.1,0.3-0.3,0.3-0.5C24.4,23.5,24.3,23.3,24.1,23.2z"/>
	</g>
</g>
</svg>
