<?xml version="1.0" encoding="utf-8"?>
<!-- Generator: Adobe Illustrator 20.1.0, SVG Export Plug-In . SVG Version: 6.00 Build 0)  -->
<svg width="22" height="22" viewBox="0 0 22 22" fill="none" xmlns="http://www.w3.org/2000/svg">
  <g clip-path="url(#clip0)">
    <path d="M16.4999 22H2.19995V0H19.7999V18.7L16.4999 22Z" fill="#C9E3F7"/>
    <path d="M11 0V22H16.5L19.8 18.7V0H11Z" fill="#78B9EB"/>
    <path d="M16.5 4.40002H5.5V6.05003H16.5V4.40002Z" fill="#78B9EB"/>
    <path d="M16.5 7.69983H5.5V9.34983H16.5V7.69983Z" fill="#78B9EB"/>
    <path d="M16.5 11H5.5V12.65H16.5V11Z" fill="#78B9EB"/>
    <path d="M16.5 4.40002H11V6.05003H16.5V4.40002Z" fill="#3C5D76"/>
    <path d="M16.5 7.7002H11V9.35019H16.5V7.7002Z" fill="#3C5D76"/>
    <path d="M16.5 11H11V12.65H16.5V11Z" fill="#3C5D76"/>
    <path d="M16.5 22.0002V18.7002H19.8L16.5 22.0002Z" fill="#3C5D76"/>
  </g>
  <defs>
    <clipPath id="clip0">
      <rect width="22" height="22" fill="white"/>
    </clipPath>
  </defs>
</svg>



