<?xml version="1.0" encoding="utf-8"?>
<!-- Generator: Adobe Illustrator 16.0.0, SVG Export Plug-In . SVG Version: 6.00 Build 0)  -->
<!DOCTYPE svg PUBLIC "-//W3C//DTD SVG 1.1//EN" "http://www.w3.org/Graphics/SVG/1.1/DTD/svg11.dtd">
<svg version="1.1" id="Layer_1" xmlns="http://www.w3.org/2000/svg" xmlns:xlink="http://www.w3.org/1999/xlink" x="0px" y="0px"
	 width="40.905px" height="28.356px" viewBox="0 0 40.905 28.356" enable-background="new 0 0 40.905 28.356" xml:space="preserve">
<g>
	<g>
		<path fill="#2F4553" d="M29.444,26.578H1.779V12.943h15.018l1.581-1.977H1.976V5.039h8.893l0,0l3.755,3.754h0.79h4.743
			l1.581-1.977h-5.928l-3.952-3.951H1.976C0.791,2.865,0,3.854,0,4.842v5.928l0,0v1.977l0,0v13.635c0,1.186,0.791,1.977,1.976,1.977
			h27.665c1.186,0,1.977-0.988,1.977-1.977V12.549l-1.977,0.395L29.444,26.578z M34.977,0.297c-0.395-0.396-0.988-0.396-1.383,0
			c-0.395,0.395-0.395,0.986,0,1.383l3.557,3.557c-0.395,0-0.592,0-0.988,0c-9.287,0-16.994,6.916-18.575,15.809h1.976
			c1.383-7.904,8.3-13.832,16.402-13.832c0.395,0,0.594,0,0.988,0l-3.557,3.557c-0.396,0.395-0.396,0.988,0,1.383
			c0.197,0.197,0.395,0.197,0.789,0.197c0.199,0,0.594,0,0.791-0.197l5.929-5.928L34.977,0.297z"/>
	</g>
</g>
</svg>
