<?xml version="1.0" encoding="utf-8"?>
<!-- Generator: Adobe Illustrator 16.0.0, SVG Export Plug-In . SVG Version: 6.00 Build 0)  -->
<!DOCTYPE svg PUBLIC "-//W3C//DTD SVG 1.1//EN" "http://www.w3.org/Graphics/SVG/1.1/DTD/svg11.dtd">
<svg version="1.1" id="Layer_1" xmlns="http://www.w3.org/2000/svg" xmlns:xlink="http://www.w3.org/1999/xlink" x="0px" y="0px"
	 width="35.57px" height="29.641px" viewBox="0 0 35.57 29.641" enable-background="new 0 0 35.57 29.641" xml:space="preserve">
<g>
	<g>
		<path fill="#2F4553" d="M34.582,23.712h-2.964V20.75c0-0.594-0.396-0.988-0.988-0.988s-0.988,0.395-0.988,0.988v2.963h-2.964
			c-0.593,0-0.988,0.396-0.988,0.988c0,0.594,0.396,0.988,0.988,0.988h2.964v2.965c0,0.592,0.396,0.986,0.988,0.986
			s0.988-0.395,0.988-0.986v-2.965h2.964c0.593,0,0.988-0.395,0.988-0.988C35.57,24.109,34.978,23.712,34.582,23.712z M1.977,9.88
			h27.665v5.928h1.977V5.927c0-1.186-0.988-1.975-2.174-1.975H15.809L11.857,0h-9.88C0.791,0,0,0.988,0,1.976v5.928l0,0V9.88l0,0
			v13.635c0,1.186,0.791,1.977,1.977,1.977h19.761v-1.977H1.977V9.88z M1.977,1.976h8.892l0,0l3.755,3.754h0.791h14.228v1.977H1.977
			V1.976z"/>
	</g>
</g>
</svg>
