<?xml version="1.0" encoding="utf-8"?>
<!-- Generator: Adobe Illustrator 16.0.0, SVG Export Plug-In . SVG Version: 6.00 Build 0)  -->
<!DOCTYPE svg PUBLIC "-//W3C//DTD SVG 1.1//EN" "http://www.w3.org/Graphics/SVG/1.1/DTD/svg11.dtd">
<svg version="1.1" id="Layer_1" xmlns="http://www.w3.org/2000/svg" xmlns:xlink="http://www.w3.org/1999/xlink" x="0px" y="0px"
	 width="21.737px" height="21.341px" viewBox="0 0 21.737 21.341" enable-background="new 0 0 21.737 21.341" xml:space="preserve">
<path fill="#2F4553" d="M18.181,1.581c0.395,0,0.79,0.197,1.186,0.594c0.395,0.395,0.79,0.789,0.79,1.186
	c0,0.395-0.197,0.789-0.79,1.383c-0.396,0.395-7.51,7.51-13.438,13.438l-0.396,0.395c-0.593,0.197-2.371,0.791-3.557,1.186
	c0.395-1.383,0.79-2.963,0.988-3.557C4.15,15.018,16.6,2.569,16.995,2.372C16.995,1.975,17.587,1.581,18.181,1.581 M18.181,0
	c-1.186,0-2.174,0.789-2.371,0.988C15.413,1.383,1.779,15.018,1.779,15.018l-0.198,0.197C1.383,16.204,0,20.551,0,20.551
	c0,0.197,0,0.395,0.198,0.594c0.198,0.197,0.198,0.197,0.396,0.197h0.197c0,0,4.545-1.383,5.335-1.779c0,0,0.198,0,0.198-0.197
	c0.396-0.395,13.437-13.24,14.228-14.029c0.791-0.791,1.186-1.582,1.186-2.373c0-0.789-0.395-1.58-1.186-2.371
	C19.761,0.395,18.971,0,18.181,0L18.181,0z"/>
</svg>
