<?xml version="1.0" encoding="utf-8"?>
<!-- Generator: Adobe Illustrator 16.0.0, SVG Export Plug-In . SVG Version: 6.00 Build 0)  -->
<!DOCTYPE svg PUBLIC "-//W3C//DTD SVG 1.1//EN" "http://www.w3.org/Graphics/SVG/1.1/DTD/svg11.dtd">
<svg version="1.1" id="Layer_1" xmlns="http://www.w3.org/2000/svg" xmlns:xlink="http://www.w3.org/1999/xlink" x="0px" y="0px"
	 width="34.483px" height="28.555px" viewBox="0 0 34.483 28.555" enable-background="new 0 0 34.483 28.555" xml:space="preserve">
<g>
	<g>
		<path fill="#2F4553" d="M32.013,24.701l2.174-2.174c0.395-0.395,0.395-0.988,0-1.383c-0.396-0.395-0.988-0.395-1.383,0
			l-2.174,2.174l-2.174-2.174c-0.396-0.395-0.988-0.395-1.384,0s-0.396,0.988,0,1.383l2.174,2.174l-2.174,2.174
			c-0.396,0.395-0.396,0.988,0,1.383c0.396,0.396,0.988,0.396,1.384,0l2.174-2.174l2.174,2.174c0.395,0.396,0.987,0.396,1.383,0
			c0.395-0.395,0.395-0.988,0-1.383L32.013,24.701z M1.976,9.88h27.666v7.904h1.977V5.927c0-1.186-0.988-1.975-2.174-1.975H15.809
			L11.856,0h-9.88C0.79,0,0,0.988,0,1.976v5.928l0,0V9.88l0,0v13.635c0,1.186,0.79,1.977,1.976,1.977h21.737v-1.977H1.976V9.88z
			 M1.976,1.976h8.892l0,0l3.755,3.754h0.791h14.228v1.977H1.976V1.976z"/>
	</g>
</g>
</svg>
