<?xml version="1.0" encoding="utf-8"?>
<!-- Generator: Adobe Illustrator 16.0.0, SVG Export Plug-In . SVG Version: 6.00 Build 0)  -->
<!DOCTYPE svg PUBLIC "-//W3C//DTD SVG 1.1//EN" "http://www.w3.org/Graphics/SVG/1.1/DTD/svg11.dtd">
<svg version="1.1" id="Layer_1" xmlns="http://www.w3.org/2000/svg" xmlns:xlink="http://www.w3.org/1999/xlink" x="0px" y="0px"
	 width="21.736px" height="24.47px" viewBox="0 0 21.736 24.47" enable-background="new 0 0 21.736 24.47" xml:space="preserve">
<g>
	<g>
		<path fill="#2F4553" d="M10.553,21.424L10.553,21.424l-2.174-3.359c-0.197-0.197-0.395-0.395-0.791-0.197l-0.197,0.197
			c-0.198,0.197-0.198,0.592-0.198,0.791l1.383,2.174c-0.198,0-0.198,0-0.395,0c-2.372-0.594-4.545-2.373-5.731-4.545
			c-1.186-2.174-1.383-4.545-0.593-6.917c0.791-2.371,2.372-4.149,4.545-5.335c0.396-0.198,0.593-0.593,0.396-0.988
			C6.601,2.848,6.205,2.651,5.81,2.848C3.241,4.034,1.463,6.208,0.475,8.974c-0.791,2.569-0.593,5.534,0.593,7.905
			c1.383,2.568,3.754,4.545,6.719,5.336c0,0,0,0,0.198,0l-1.976,0.988C5.81,23.4,5.612,23.598,5.81,23.992v0.197
			c0.198,0.199,0.395,0.396,0.593,0.199l3.557-1.779l0,0l0.197-0.197c0.198,0,0.198-0.197,0.198-0.396c0-0.197,0-0.197,0-0.395
			L10.553,21.424z M20.433,7.789c-1.383-2.568-3.754-4.545-6.521-5.336c-0.198,0-0.396,0-0.593-0.197l1.977-0.988
			c0.197-0.197,0.395-0.395,0.197-0.79V0.28c-0.197-0.198-0.593-0.396-0.791-0.198L11.146,1.86l0,0L10.75,2.058
			c-0.198,0-0.198,0.197-0.198,0.395c0,0.198,0,0.198,0,0.396l0.198,0.198l0,0l2.174,3.359c0.197,0.197,0.395,0.395,0.79,0.197
			l0.197-0.197c0.198-0.198,0.198-0.593,0.198-0.791l-1.384-2.174c0.396,0,0.593,0,0.988,0.198c2.371,0.593,4.545,2.371,5.73,4.545
			s1.384,4.544,0.593,6.916s-2.371,4.15-4.348,5.336c-0.395,0.197-0.593,0.594-0.395,0.988c0.197,0.197,0.395,0.395,0.592,0.395
			c0.198,0,0.198,0,0.396,0c2.569-1.186,4.348-3.359,5.138-6.125C22.015,12.926,21.816,10.16,20.433,7.789z"/>
	</g>
</g>
</svg>
