<?xml version="1.0" encoding="utf-8"?>
<!-- Generator: Adobe Illustrator 16.0.0, SVG Export Plug-In . SVG Version: 6.00 Build 0)  -->
<!DOCTYPE svg PUBLIC "-//W3C//DTD SVG 1.1//EN" "http://www.w3.org/Graphics/SVG/1.1/DTD/svg11.dtd">
<svg version="1.1" id="Layer_1" xmlns="http://www.w3.org/2000/svg" xmlns:xlink="http://www.w3.org/1999/xlink" x="0px" y="0px"
	 width="19.563px" height="23.515px" viewBox="0 0 19.563 23.515" enable-background="new 0 0 19.563 23.515" xml:space="preserve">
<g>
	<g>
		<path fill="#2F4553" d="M18.576,3.558h-5.139V1.581C13.438,0.593,12.646,0,11.658,0H7.707C6.719,0,5.928,0.791,5.928,1.581v1.977
			H0.791C0.395,3.558,0,3.952,0,4.348s0.395,0.79,0.791,0.79h0.988l1.777,16.995c0,0.791,0.791,1.383,1.582,1.383h9.287
			c0.791,0,1.58-0.592,1.58-1.383l1.779-16.995h0.988c0.395,0,0.789-0.395,0.789-0.79C19.365,3.755,18.971,3.558,18.576,3.558z
			 M7.51,1.384c0-0.197,0-0.197,0.197-0.197h3.951c0.199,0,0.199,0,0.199,0.197v1.976H7.51V1.384L7.51,1.384z M14.426,21.738
			C14.426,21.935,14.229,21.935,14.426,21.738H5.139l0,0L3.359,4.94h12.844L14.426,21.738z"/>
	</g>
</g>
</svg>
