<?xml version="1.0" encoding="utf-8"?>
<!-- Generator: Adobe Illustrator 16.0.0, SVG Export Plug-In . SVG Version: 6.00 Build 0)  -->
<!DOCTYPE svg PUBLIC "-//W3C//DTD SVG 1.1//EN" "http://www.w3.org/Graphics/SVG/1.1/DTD/svg11.dtd">
<svg version="1.1" id="Layer_1" xmlns="http://www.w3.org/2000/svg" xmlns:xlink="http://www.w3.org/1999/xlink" x="0px" y="0px"
	 width="30.629px" height="24.257px" viewBox="0 0 30.629 24.257" enable-background="new 0 0 30.629 24.257" xml:space="preserve">
<g>
	<g>
		<path fill="#2F4553" d="M24.7,12.399c-3.359,0-5.928,2.57-5.928,5.93s2.568,5.928,5.928,5.928s5.93-2.568,5.93-5.928
			C30.63,15.167,28.06,12.399,24.7,12.399z M24.7,23.466c-2.766,0-5.137-2.371-5.137-5.137c0-2.768,2.371-5.139,5.137-5.139
			c2.768,0,5.139,2.371,5.139,5.139C30.036,21.292,27.665,23.466,24.7,23.466z M26.677,17.341h-3.951
			c-0.594,0-0.988,0.395-0.988,0.988c0,0.592,0.395,0.986,0.988,0.986h3.951c0.594,0,0.988-0.395,0.988-0.986
			C27.665,17.735,27.271,17.341,26.677,17.341z M0.593,6.867l11.066,5.929c0.197,0,0.197,0,0.395,0s0.197,0,0.395,0l11.066-5.929
			c0.199-0.197,0.396-0.396,0.396-0.593s-0.199-0.593-0.396-0.593L12.448,0.148c-0.197-0.197-0.395-0.197-0.592,0L0.79,5.681
			C0.593,5.878,0.396,6.077,0.396,6.274C0.196,6.471,0.396,6.867,0.593,6.867z M12.054,1.532l9.486,4.742l-9.486,5.138L2.569,6.274
			L12.054,1.532z M11.856,22.083L2.37,16.944l1.779-0.789l-1.58-0.791l-2.174,0.988c-0.199,0.197-0.396,0.395-0.396,0.592
			s0.197,0.594,0.396,0.594l11.066,5.928c0.197,0,0.197,0,0.395,0s0.197,0,0.395,0l3.756-1.977c-0.199-0.395-0.199-0.988-0.396-1.58
			L11.856,22.083z M2.37,11.807l1.977-0.988l-1.58-0.79l-2.371,1.186c-0.199,0.197-0.396,0.396-0.396,0.593s0.197,0.592,0.396,0.592
			l11.066,5.928c0.197,0,0.197,0,0.395,0s0.197,0,0.395,0l3.557-1.975c0.199-0.791,0.396-1.385,0.791-2.174l-4.742,2.568
			L2.37,11.807z"/>
	</g>
</g>
</svg>
