<svg width="25" height="30" viewBox="0 0 25 30" fill="none" xmlns="http://www.w3.org/2000/svg">
<g id="Group">
<path id="Vector" d="M9.19803 16.6633C8.75452 16.3455 8.21202 16.1966 7.66843 16.2436C7.15389 16.2362 6.63971 16.2747 6.13202 16.3587V21.6582H7.25552V19.7361C7.38396 19.7452 7.51288 19.7452 7.64132 19.7361C7.93687 19.7552 8.23329 19.7154 8.51332 19.619C8.79335 19.5226 9.05141 19.3714 9.27248 19.1743C9.5874 18.8273 9.75278 18.3701 9.73273 17.9019C9.73798 17.6691 9.69293 17.438 9.60065 17.2242C9.50837 17.0104 9.37103 16.8191 9.19803 16.6633ZM7.8175 18.8416C7.75624 18.844 7.69489 18.8398 7.63452 18.8292L7.66837 18.8224C7.54247 18.8372 7.41527 18.8372 7.28937 18.8224V17.2116C7.44234 17.1757 7.59931 17.1597 7.75637 17.1641C8.32492 17.1641 8.64302 17.462 8.64302 17.9493C8.66146 18.4236 8.29189 18.8232 7.8175 18.8416Z" fill="#FF0D0D"/>
<path id="Vector_2" d="M17.5973 0H2.70731C1.21214 0 0 1.21208 0 2.70725V27.0728C0 28.5679 1.21208 29.78 2.70725 29.78H21.6582C23.1533 29.78 24.3654 28.5679 24.3654 27.0728V7.44501L17.5973 0ZM23.0119 27.0728C23.0119 27.8204 22.4058 28.4265 21.6582 28.4265H2.70731C1.95972 28.4265 1.35365 27.8204 1.35365 27.0728V2.70725C1.35365 1.95967 1.95972 1.3536 2.70731 1.3536H14.8901V8.12181C14.8901 8.8694 15.4961 9.47547 16.2437 9.47547H23.0119L23.0119 27.0728ZM16.2437 8.12181V1.35365H16.9205L23.0118 8.12187L16.2437 8.12181Z" fill="#FF0D0D"/>
<path id="Vector_3" d="M13.7798 16.8596C13.1922 16.415 12.4644 16.1965 11.7291 16.2437C11.2147 16.2401 10.7009 16.2786 10.1927 16.3587V21.6582C10.6189 21.7152 11.0486 21.7424 11.4786 21.7394C12.3066 21.8007 13.1288 21.5603 13.7933 21.0626C14.0793 20.781 14.3015 20.4414 14.4451 20.0666C14.5887 19.6918 14.6503 19.2906 14.6258 18.89C14.6534 18.509 14.5912 18.1269 14.4443 17.7742C14.2973 17.4216 14.0698 17.1083 13.7798 16.8596ZM13.4279 18.89C13.4211 20.1692 12.7511 20.7716 11.7291 20.7648V20.7581C11.5986 20.7711 11.4671 20.7711 11.3365 20.7581V17.2319C11.5056 17.1962 11.6782 17.1803 11.8509 17.1845C12.6713 17.1269 13.383 17.7451 13.4406 18.5655C13.4482 18.6738 13.4439 18.7826 13.4279 18.89ZM15.6072 21.6582H16.7443V19.4992H18.5447V18.511H16.7443V17.286H18.6733V16.291H15.6072V21.6582Z" fill="#FF0D0D"/>
</g>
</svg>
