<svg width="25" height="29" viewBox="0 0 25 29" fill="none" xmlns="http://www.w3.org/2000/svg">
<g id="Group">
<path id="Vector" d="M21.1458 29H3.02083C2.21995 28.999 1.45215 28.6805 0.885841 28.1142C0.319533 27.5479 0.000959331 26.78 0 25.9792V3.02083C0 1.35575 1.35575 0 3.02083 0H21.1458C22.8109 0 24.1667 1.35575 24.1667 3.02083V25.9792C24.1667 27.6443 22.8109 29 21.1458 29ZM3.02083 1.20833C2.02154 1.20833 1.20833 2.02154 1.20833 3.02083V25.9792C1.20833 26.9785 2.02154 27.7917 3.02083 27.7917H21.1458C22.1451 27.7917 22.9583 26.9785 22.9583 25.9792V3.02083C22.9583 2.02154 22.1451 1.20833 21.1458 1.20833H3.02083Z" fill="#0073AD"/>
<path id="Vector_2" d="M11.4792 12.0833C11.3189 12.0833 11.1653 12.0197 11.052 11.9064C10.9387 11.7931 10.875 11.6394 10.875 11.4792V10.875H4.83333V11.4792C4.83333 11.6394 4.76968 11.7931 4.65638 11.9064C4.54307 12.0197 4.3894 12.0833 4.22917 12.0833C4.06893 12.0833 3.91526 12.0197 3.80196 11.9064C3.68865 11.7931 3.625 11.6394 3.625 11.4792V10.2708C3.625 10.1106 3.68865 9.95692 3.80196 9.84361C3.91526 9.73031 4.06893 9.66666 4.22917 9.66666H11.4792C11.6394 9.66666 11.7931 9.73031 11.9064 9.84361C12.0197 9.95692 12.0833 10.1106 12.0833 10.2708V11.4792C12.0833 11.6394 12.0197 11.7931 11.9064 11.9064C11.7931 12.0197 11.6394 12.0833 11.4792 12.0833Z" fill="#0073AD"/>
<path id="Vector_3" d="M7.85417 18.125C7.69393 18.125 7.54026 18.0613 7.42696 17.948C7.31365 17.8347 7.25 17.6811 7.25 17.5208V10.2708C7.25 10.1106 7.31365 9.95692 7.42696 9.84361C7.54026 9.73031 7.69393 9.66666 7.85417 9.66666C8.0144 9.66666 8.16807 9.73031 8.28138 9.84361C8.39468 9.95692 8.45833 10.1106 8.45833 10.2708V17.5208C8.45833 17.6811 8.39468 17.8347 8.28138 17.948C8.16807 18.0613 8.0144 18.125 7.85417 18.125Z" fill="#0073AD"/>
<path id="Vector_4" d="M9.0625 18.125H6.64583C6.4856 18.125 6.33193 18.0613 6.21862 17.948C6.10532 17.8347 6.04167 17.6811 6.04167 17.5208C6.04167 17.3606 6.10532 17.2069 6.21862 17.0936C6.33193 16.9803 6.4856 16.9167 6.64583 16.9167H9.0625C9.22273 16.9167 9.37641 16.9803 9.48971 17.0936C9.60301 17.2069 9.66667 17.3606 9.66667 17.5208C9.66667 17.6811 9.60301 17.8347 9.48971 17.948C9.37641 18.0613 9.22273 18.125 9.0625 18.125ZM19.9375 10.875H15.1042C14.9439 10.875 14.7903 10.8113 14.677 10.698C14.5637 10.5847 14.5 10.4311 14.5 10.2708C14.5 10.1106 14.5637 9.95692 14.677 9.84361C14.7903 9.73031 14.9439 9.66666 15.1042 9.66666H19.9375C20.0977 9.66666 20.2514 9.73031 20.3647 9.84361C20.478 9.95692 20.5417 10.1106 20.5417 10.2708C20.5417 10.4311 20.478 10.5847 20.3647 10.698C20.2514 10.8113 20.0977 10.875 19.9375 10.875ZM19.9375 14.5H15.1042C14.9439 14.5 14.7903 14.4363 14.677 14.323C14.5637 14.2097 14.5 14.0561 14.5 13.8958C14.5 13.7356 14.5637 13.5819 14.677 13.4686C14.7903 13.3553 14.9439 13.2917 15.1042 13.2917H19.9375C20.0977 13.2917 20.2514 13.3553 20.3647 13.4686C20.478 13.5819 20.5417 13.7356 20.5417 13.8958C20.5417 14.0561 20.478 14.2097 20.3647 14.323C20.2514 14.4363 20.0977 14.5 19.9375 14.5ZM19.9375 18.125H15.1042C14.9439 18.125 14.7903 18.0613 14.677 17.948C14.5637 17.8347 14.5 17.6811 14.5 17.5208C14.5 17.3606 14.5637 17.2069 14.677 17.0936C14.7903 16.9803 14.9439 16.9167 15.1042 16.9167H19.9375C20.0977 16.9167 20.2514 16.9803 20.3647 17.0936C20.478 17.2069 20.5417 17.3606 20.5417 17.5208C20.5417 17.6811 20.478 17.8347 20.3647 17.948C20.2514 18.0613 20.0977 18.125 19.9375 18.125ZM19.9375 21.75H4.22917C4.06893 21.75 3.91526 21.6863 3.80196 21.573C3.68865 21.4597 3.625 21.3061 3.625 21.1458C3.625 20.9856 3.68865 20.8319 3.80196 20.7186C3.91526 20.6053 4.06893 20.5417 4.22917 20.5417H19.9375C20.0977 20.5417 20.2514 20.6053 20.3647 20.7186C20.478 20.8319 20.5417 20.9856 20.5417 21.1458C20.5417 21.3061 20.478 21.4597 20.3647 21.573C20.2514 21.6863 20.0977 21.75 19.9375 21.75ZM19.9375 25.375H4.22917C4.06893 25.375 3.91526 25.3113 3.80196 25.198C3.68865 25.0847 3.625 24.9311 3.625 24.7708C3.625 24.6106 3.68865 24.4569 3.80196 24.3436C3.91526 24.2303 4.06893 24.1667 4.22917 24.1667H19.9375C20.0977 24.1667 20.2514 24.2303 20.3647 24.3436C20.478 24.4569 20.5417 24.6106 20.5417 24.7708C20.5417 24.9311 20.478 25.0847 20.3647 25.198C20.2514 25.3113 20.0977 25.375 19.9375 25.375Z" fill="#0073AD"/>
</g>
</svg>
