<?xml version="1.0" encoding="utf-8"?>
<!-- Generator: Adobe Illustrator 22.0.1, SVG Export Plug-In . SVG Version: 6.00 Build 0)  -->
<svg version="1.1" id="Слой_1" xmlns="http://www.w3.org/2000/svg" xmlns:xlink="http://www.w3.org/1999/xlink" x="0px" y="0px"
	 viewBox="0 0 215 60" style="enable-background:new 0 0 215 60;" xml:space="preserve">
<style type="text/css">
	.st0{fill-rule:evenodd;clip-rule:evenodd;fill:#0073AD;}
	.st1{fill-rule:evenodd;clip-rule:evenodd;fill:#F2643D;}
	.st2{fill:#F2643D;}
</style>
<path class="st0" d="M151.7,11.7c-0.1,0.1-0.3,0.1-0.6,0.1c-0.3,0-0.5,0-0.8-0.1c-1.4-2.8-2.3-4.4-2.5-4.7c-0.4-0.5-0.9-0.9-1.5-1.1
	c-0.6-0.2-1.2-0.3-1.7-0.5c-0.5-0.1-0.9-0.5-1.3-1.1C143.1,4.3,143,4,143,3.6c-0.1-0.4-0.2-0.8-0.5-1.4c-0.2-0.6-0.5-1.1-0.8-1.6V0
	h1.1c2.1,0.6,3.6,1.2,4.4,1.8c0.9,0.5,1.5,1.1,1.7,1.6c0.3,0.6,0.6,1.6,1,3.1c0.4,1.5,0.9,2.8,1.5,4.1
	C151.6,11.1,151.7,11.5,151.7,11.7L151.7,11.7z M215,14.6l0,3.3h-2.8V23c0,0.1-0.8,1.4-2.3,4.1c-1.5,2.7-3.3,5.8-5.3,9.3
	c-2,3.5-3.4,6.1-4.3,7.6c-0.6,0-1.5-0.3-2.7-1c-1.2-0.7-2.4-1.6-3.6-2.8c-1.2-1.2-2.3-2.6-3.1-4.2c-0.8-1.6-1.2-3.3-1.2-5.1
	c0-1.2,0.2-2.1,0.5-2.8c0.3-0.7,0.7-1.4,1.2-2c0.5-0.7,0.8-1.2,0.8-1.6c0-0.6-0.5-0.9-1.6-0.9c-0.7,0-1.2,0.2-1.7,0.5
	c-0.5,0.3-1.3,1.1-2.3,2.4l-3.5-3.2c0.7-0.6,1.3-1,1.9-1.3c0.6-0.3,1.1-0.5,1.6-0.6c0.5-0.1,1.2-0.2,2.2-0.2c2.9,0,4.9,0.7,5.8,2.2
	c1,1.5,1.5,3.3,1.5,5.6c0,0.2-0.1,1-0.2,2.5c-0.1,1.5-0.2,2.8-0.2,3.9c0,2.9,0.5,4.4,1.5,4.7c0.5,0,1.2-0.7,2-2.1l8.3-14.9v-5.3
	h-26.7h-0.8h-17.3v4.4c0.1,0,0.2,0,0.2,0.1c0.1,0.1,0.1,0.1,0.2,0.1c0,0,0.3-0.1,1.1-0.3c0.8-0.2,1.7-0.4,2.7-0.6
	c1-0.2,2-0.3,2.9-0.3c2.2,0,3.9,0.3,5.1,0.9c1.2,0.6,2.1,1.4,2.7,2.5c0.5,1.1,0.9,2.3,1,3.7c0.1,1.3,0.2,3.2,0.2,5.6v10.7
	c-1-0.4-1.9-0.8-2.7-1.2c-0.8-0.4-1.3-0.7-1.6-0.9c0-0.6-0.1-1-0.3-1.1c-0.6,0.3-1.3,0.7-2,1.1c-0.7,0.4-1.7,0.8-2.9,1.1
	c-1.2,0.3-2.6,0.5-4.3,0.5c-1.6,0-3.1-0.3-4.6-0.9c-1.5-0.6-2.7-1.4-3.6-2.5c-0.9-1.1-1.4-2.3-1.4-3.7c0-1.3,0.6-2.6,1.8-4
	c1.2-1.4,2.7-2.5,4.7-3.5c2-0.9,4.1-1.4,6.5-1.4c1.3,0,2.5,0.2,3.6,0.6c1.1,0.4,2,0.8,2.6,1.2v-2.5c-0.7-0.9-1.4-1.5-2.1-1.9
	c-0.7-0.4-1.8-0.5-3.2-0.5c-1.9,0.1-3.4,0.2-4.5,0.5c-1.1,0.2-2.3,0.6-3.5,1.1c-1.2,0.5-2.3,0.9-3.2,1.2v-2c0.1-0.1,0.3-0.3,0.5-0.5
	c0.2-0.2,0.4-0.3,0.5-0.4c0.1-0.1,0.1-0.1,0.1-0.2v-7h-3.5h-2h-12.3h-2h-24.8h-0.6H96.3v4.4c0.1,0,0.2,0,0.2,0.1
	c0.1,0.1,0.1,0.1,0.2,0.1c0,0,0.3-0.1,1.1-0.3c0.8-0.2,1.7-0.4,2.7-0.6c1-0.2,2-0.3,2.9-0.3c2.2,0,3.9,0.3,5.1,0.9
	c1.2,0.6,2.1,1.4,2.7,2.5c0.5,1.1,0.9,2.3,1,3.7c0.1,1.3,0.2,3.2,0.2,5.6v10.7c-1-0.4-1.9-0.8-2.7-1.2c-0.8-0.4-1.3-0.7-1.6-0.9
	c0-0.6-0.1-1-0.3-1.1c-0.6,0.3-1.3,0.7-2,1.1c-0.7,0.4-1.7,0.8-2.9,1.1c-1.2,0.3-2.6,0.5-4.3,0.5c-1.6,0-3.1-0.3-4.6-0.9
	c-1.5-0.6-2.7-1.4-3.6-2.5c-0.9-1.1-1.4-2.3-1.4-3.7c0-1.3,0.6-2.6,1.8-4c1.2-1.4,2.7-2.5,4.7-3.5c2-0.9,4.1-1.4,6.5-1.4
	c1.3,0,2.5,0.2,3.6,0.6c1.1,0.4,2,0.8,2.6,1.2v-2.5c-0.7-0.9-1.4-1.5-2.1-1.9c-0.7-0.4-1.8-0.5-3.2-0.5c-1.9,0.1-3.4,0.2-4.5,0.5
	c-1.1,0.2-2.3,0.6-3.5,1.1c-1.2,0.5-2.3,0.9-3.2,1.2v-2c0.1-0.1,0.3-0.3,0.5-0.5c0.2-0.2,0.4-0.3,0.5-0.4c0.1-0.1,0.1-0.1,0.1-0.2
	v-7h-4.7h-0.9H70v4.4c0.1,0,0.2,0,0.2,0.1c0.1,0.1,0.1,0.1,0.2,0.1c0,0,0.3-0.1,1.1-0.3c0.8-0.2,1.7-0.4,2.7-0.6c1-0.2,2-0.3,3-0.3
	c2.2,0,3.9,0.3,5.1,0.9c1.2,0.6,2.1,1.4,2.7,2.5c0.5,1.1,0.9,2.3,1,3.7c0.1,1.3,0.2,3.2,0.2,5.6v10.4c-1.4-0.5-2.4-0.9-3-1.2
	c-0.6-0.3-1-0.4-1.4-0.6c0-0.6-0.1-0.9-0.4-1.1c-0.6,0.3-1.3,0.7-2,1.1c-0.7,0.4-1.7,0.8-2.9,1.1c-1.2,0.3-2.6,0.5-4.2,0.5
	c-1.6,0-3.1-0.3-4.6-0.9c-1.5-0.6-2.7-1.4-3.6-2.5c-0.9-1.1-1.4-2.3-1.4-3.7c0-1.3,0.6-2.6,1.8-4c1.2-1.4,2.7-2.5,4.7-3.5
	c2-0.9,4.1-1.4,6.4-1.4c1.3,0,2.5,0.2,3.6,0.6c1.1,0.4,2,0.8,2.6,1.2v-2.5c-0.8-1-1.5-1.6-2.2-1.9c-0.7-0.3-1.8-0.5-3.2-0.5
	c-1.9,0.1-3.4,0.2-4.5,0.5c-1.1,0.2-2.3,0.6-3.5,1.1c-1.3,0.5-2.3,0.9-3.2,1.2v-2c0.1-0.1,0.3-0.3,0.5-0.5c0.2-0.2,0.4-0.3,0.5-0.4
	c0.1-0.1,0.1-0.1,0.1-0.2v-7h-5.6v-3.3h26.3h0.9h25.7h0.6h24.8h2h12.3h2h24.4h0.8H215L215,14.6z M174.4,35c0-0.8-0.9-1.5-2.8-2.1
	c-1.9-0.6-3.2-0.8-4-0.8c-2,0-3.8,0.4-5.4,1.3c-1.6,0.8-2.9,1.8-3.8,2.9c-0.9,1.1-1.4,2-1.4,2.7c0.2,0.8,0.8,1.3,1.7,1.6
	c0.9,0.3,1.8,0.4,2.8,0.4c1.8,0,3.6-0.2,5.1-0.7c1.6-0.5,3-1.1,4.1-1.8c1.2-0.7,2-1.4,2.7-2.1C174.1,35.7,174.4,35.2,174.4,35
	L174.4,35z M151.8,54.5c0,0.7-0.3,1.5-0.9,2.4c-0.6,0.9-1.5,1.6-2.6,2.2c-1.1,0.6-2.3,0.9-3.6,0.9c-1.4,0-2.9-0.5-4.5-1.6
	c-1.5-1.1-2.6-2.2-3.2-3.5l4.2-3.3c0.1,1.7,0.5,3.3,1.1,4.7c0.6,1.4,1.5,2.1,2.8,2.1c0.6,0,1-0.2,1.4-0.6c0.4-0.4,0.5-1,0.5-1.6
	V21.2h4.8V54.5L151.8,54.5z M138.9,27.6c0,1.2-0.7,2.4-2,3.6c-1.3,1.3-2.4,2.1-3.3,2.5l-4.1-4.6c1.5-0.1,2.8-0.7,3.8-1.6
	c1-0.9,1.6-1.9,1.6-2.8c0-0.4-0.3-0.8-0.9-1.4c-0.6-0.5-1.4-0.8-2.3-0.8c-1.2,0-2.5,0.5-4,1.6c-1.5,1.1-2.7,2.5-3.8,4.2
	c-1,1.7-1.6,3.4-1.6,5.2V45l-5.2-2.7V22.3h5.3v2.1c0.1-0.1,0.7-0.5,1.6-1c0.9-0.5,2-1,3.2-1.4c1.2-0.4,2.5-0.6,3.7-0.6
	c1,0,2.2,0.3,3.5,0.8c1.2,0.5,2.3,1.3,3.2,2.2C138.5,25.2,138.9,26.3,138.9,27.6L138.9,27.6z M108.1,35c0-0.8-0.9-1.5-2.8-2.1
	c-1.9-0.6-3.2-0.8-4-0.8c-2,0-3.8,0.4-5.4,1.3c-1.6,0.8-2.9,1.8-3.8,2.9c-0.9,1.1-1.4,2-1.4,2.7c0.2,0.8,0.8,1.3,1.7,1.6
	c0.9,0.3,1.8,0.4,2.8,0.4c1.8,0,3.6-0.2,5.1-0.7c1.6-0.5,3-1.1,4.1-1.8c1.2-0.7,2-1.4,2.7-2.1C107.8,35.7,108.1,35.2,108.1,35
	L108.1,35z M81.9,35c0-0.8-0.9-1.5-2.8-2.1c-1.9-0.6-3.2-0.8-4-0.8c-2,0-3.7,0.4-5.4,1.2c-1.6,0.8-2.9,1.8-3.8,2.9
	c-0.9,1.1-1.4,2-1.4,2.7c0.2,0.7,0.8,1.3,1.7,1.5c0.9,0.3,1.8,0.4,2.8,0.4c1.8,0,3.5-0.2,5.1-0.7c1.6-0.5,2.9-1.1,4.1-1.8
	c1.2-0.7,2.1-1.4,2.7-2C81.5,35.7,81.9,35.3,81.9,35L81.9,35z"/>
<path class="st1" d="M29.8,7.4c6.4,0.3,12.1,3,16.3,7.2c4.5,4.5,7.3,10.7,7.3,17.5c0,6.8-2.8,13-7.3,17.5c-4.2,4.2-10,6.9-16.3,7.2
	v1.7c7.4-0.3,14.2-3.4,19.1-8.4c5.2-5.2,8.4-12.4,8.4-20.3c0-7.9-3.2-15.1-8.4-20.3c-4.9-4.9-11.6-8.1-19.1-8.4V7.4L29.8,7.4z"/>
<path class="st0" d="M27.5,52.6c-6.4-0.3-12.1-3-16.3-7.2c-4.5-4.5-7.3-10.7-7.3-17.5s2.8-13,7.3-17.5c4.2-4.2,10-6.9,16.3-7.2V1.3
	C20,1.6,13.3,4.8,8.4,9.7C3.2,14.9,0,22.1,0,30c0,7.9,3.2,15.1,8.4,20.3c4.9,4.9,11.6,8.1,19.1,8.4V52.6L27.5,52.6z"/>
<path class="st2" d="M14.7,27.7c0.5-3,1.9-5.7,4-7.7c2.6-2.6,6.1-4.2,10-4.2c3.9,0,7.4,1.6,10,4.2c2,2,3.5,4.7,4,7.7H21v4.6h21.6
	h4.7c0.1-0.8,0.1-1.5,0.1-2.3c0-0.8,0-1.6-0.1-2.3c-0.5-4.3-2.5-8.1-5.4-11c-3.4-3.4-8.1-5.5-13.3-5.5c-5.2,0-9.9,2.1-13.3,5.5
	c-2.9,2.9-4.8,6.7-5.4,11c-0.1,0.8-0.1,1.5-0.1,2.3c0,0.8,0,1.6,0.1,2.3c0.5,4.3,2.5,8.1,5.4,11c3.4,3.4,8.1,5.5,13.3,5.5
	c4.2,0,8.1-1.4,11.2-3.7l-3.1-3.5c-2.3,1.6-5.1,2.6-8.1,2.6c-3.9,0-7.4-1.6-10-4.2c-2-2-3.5-4.7-4-7.7c-0.1-0.8-0.2-1.5-0.2-2.3
	C14.5,29.2,14.5,28.4,14.7,27.7L14.7,27.7z"/>
</svg>
